<svg fill="none" height="20" viewBox="0 0 20 21" width="20" xmlns="http://www.w3.org/2000/svg">
    <circle cx="10" cy="10.5" r="9.5" stroke="white" />
    <path
    d="M5.48718 16.5499C4.79884 15.3576 4.45467 14.7615 4.60931 14.1844C4.76395 13.6073 5.35283 13.2673 6.5306 12.5873L11.5926 9.66473L11.9657 10.3111C12.4757 11.1944 12.7307 11.636 12.6147 12.0689C12.4988 12.5017 12.0571 12.7567 11.1738 13.2667L5.48718 16.5499Z"
    fill="white"
    />
    <path
    d="M5.11464 11.5389C4.60466 10.6555 4.34966 10.2139 4.46564 9.78102C4.58162 9.34818 5.02328 9.09319 5.90661 8.5832L11.5932 5.30005L11.9663 5.94637C12.4763 6.82969 12.7313 7.27135 12.6154 7.7042C12.4994 8.13705 12.0577 8.39204 11.1744 8.90203L5.4878 12.1852L5.11464 11.5389Z"
    fill="white"
    />
    <g clipPath="url(#clip0_5000_3586)">
        <path
            d="M14.1254 10.7168C14.1254 10.7996 14.1583 10.8791 14.2169 10.9377C14.2755 10.9963 14.355 11.0293 14.4379 11.0293C14.5208 11.0293 14.6003 10.9963 14.6589 10.9377C14.7175 10.8791 14.7504 10.7996 14.7504 10.7168V9.36259H16.1046C16.1875 9.36259 16.2669 9.32967 16.3255 9.27106C16.3841 9.21246 16.4171 9.13297 16.4171 9.05009C16.4171 8.96721 16.3841 8.88772 16.3255 8.82912C16.2669 8.77051 16.1875 8.73759 16.1046 8.73759H14.7504V7.38342C14.7504 7.30054 14.7175 7.22106 14.6589 7.16245C14.6003 7.10385 14.5208 7.07092 14.4379 7.07092C14.355 7.07092 14.2755 7.10385 14.2169 7.16245C14.1583 7.22106 14.1254 7.30054 14.1254 7.38342V8.73759H12.7712C12.6884 8.73759 12.6089 8.77051 12.5503 8.82912C12.4917 8.88772 12.4587 8.96721 12.4587 9.05009C12.4587 9.13297 12.4917 9.21246 12.5503 9.27106C12.6089 9.32967 12.6884 9.36259 12.7712 9.36259H14.1254V10.7168Z"
            fill="white"
        />
    </g>
    <defs>
    <clipPath id="clip0_5000_3586">
        <rect height="5" transform="translate(11.938 6.55005)" width="5" />
    </clipPath>
    </defs>
</svg>